Coordinates
version=1
nRows=17
nColumns=24
inDegrees=yes

Units are S.I. units (second, meters, Newtons, ...)
Angles are in degrees.

endheader
time	pelvis_tilt	pelvis_list	pelvis_rotation	pelvis_tx	pelvis_ty	pelvis_tz	hip_flexion_r	hip_adduction_r	hip_rotation_r	knee_angle_r	ankle_angle_r	subtalar_angle_r	mtp_angle_r	hip_flexion_l	hip_adduction_l	hip_rotation_l	knee_angle_l	ankle_angle_l	subtalar_angle_l	mtp_angle_l	lumbar_extension	lumbar_bending	lumbar_rotation
      1.09200000	     -5.23339387	      6.09939181	     -1.06848699	      0.17986857	      0.91169829	      0.30825644	     20.39885823	    -10.44701303	     -6.09103407	    -72.24659591	     -7.29604122	      9.74492292	      8.93847000	     13.51113942	      9.90699344	     -0.70094077	    -12.89908525	      2.87601841	    -13.07973596	      2.49311093	     -6.55164339	     -9.25139365	      0.64485929
      1.09616667	     -5.21495078	      5.87813962	     -1.01101935	      0.18514670	      0.91285311	      0.30804011	     21.06314685	    -10.16627757	     -6.18780128	    -72.13830429	     -6.81964613	      9.61181476	      8.86710460	     12.79821044	      9.73690566	     -0.35691352	    -12.28695035	      2.84975279	    -13.30198327	      2.43468620	     -6.57561582	     -8.97390035	      0.42421561
      1.10033333	     -5.21586473	      5.64517632	     -0.94598615	      0.19041388	      0.91394023	      0.30781294	     21.73048473	     -9.87005845	     -6.29975668	    -71.96046070	     -6.32058306	      9.44250761	      8.79956316	     12.13426387	      9.54455279	     -0.07696338	    -11.72780313	      2.83459944	    -13.42523454	      2.37433667	     -6.57130403	     -8.67073700	      0.26788226
      1.10450000	     -5.20677653	      5.39987149	     -0.87276798	      0.19568461	      0.91501604	      0.30757995	     22.36110936	     -9.55981024	     -6.42763972	    -71.70220682	     -5.83179171	      9.26120554	      8.73571800	     11.46361031	      9.33513665	      0.20189205	    -11.17590261	      2.82652465	    -13.52804607	      2.31494943	     -6.58027678	     -8.35615614	      0.10402430
      1.10866667	     -5.21529961	      5.14473814	     -0.79022566	      0.20092794	      0.91602035	      0.30733777	     22.99255860	     -9.23584679	     -6.56578621	    -71.37780523	     -5.30724319	      9.06010525	      8.70427037	     10.84201784	      9.10690495	      0.42721357	    -10.67771194	      2.82116238	    -13.54328992	      2.28104713	     -6.57888526	     -8.01860465	     -0.00500443
      1.11283333	     -5.17359686	      4.87758832	     -0.69341455	      0.20622245	      0.91709685	      0.30705207	     23.52870019	     -8.91392012	     -6.74129413	    -70.95090357	     -4.89642716	      8.83526149	      8.63032568	     10.12538360	      8.87696184	      0.77274149	    -10.10369074	      2.81757241	    -13.72381942	      2.21552983	     -6.61978404	     -7.67923133	     -0.25116151
      1.11700000	     -5.15740959	      4.60991460	     -0.58872536	      0.21148737	      0.91807618	      0.30676101	     24.07752834	     -8.59062198	     -6.92117064	    -70.46824074	     -4.43578201	      8.60961576	      8.55364447	      9.46549325	      8.63758289	      1.06681702	     -9.57902243	      2.80300477	    -13.84124864	      2.14874807	     -6.63757298	     -7.33042408	     -0.44363103
      1.12116667	     -5.15199962	      4.33260174	     -0.47429762	      0.21670965	      0.91899258	      0.30647370	     24.62094451	     -8.25290631	     -7.10595873	    -69.92353563	     -3.95084596	      8.36676267	      8.50274701	      8.84704591	      8.37901144	      1.32227757	     -9.10641666	      2.79363440	    -13.86874374	      2.10453189	     -6.67133160	     -6.97067896	     -0.58557752
      1.12533333	     -5.09533287	      4.05426123	     -0.35194472	      0.22199870	      0.91996108	      0.30614866	     25.07139770	     -7.93355746	     -7.32745297	    -69.28942903	     -3.56896034	      8.08626877	      8.41344629	      8.14252674	      8.12326445	      1.63307804	     -8.57694572	      2.80830787	    -13.99749007	      2.03789037	     -6.71896969	     -6.60500706	     -0.83361017
      1.12950000	     -5.06050583	      3.77547432	     -0.22040166	      0.22724342	      0.92083821	      0.30582408	     25.53171440	     -7.61248058	     -7.54933778	    -68.60185399	     -3.15011941	      7.80534955	      8.32055242	      7.48788124	      7.85951538	      1.91697978	     -8.09000922	      2.80902346	    -14.07928748	      1.97229121	     -6.76286476	     -6.23980000	     -1.04692635
      1.13366667	     -5.01730217	      3.51377237	     -0.08093929	      0.23247686	      0.92166986	      0.30549057	     25.96670492	     -7.31574108	     -7.77552693	    -67.86281844	     -2.72337919	      7.49048903	      8.14150575	      6.82120437	      7.61230071	      2.22857424	     -7.58626401	      2.75280339	    -14.22478388	      1.85477310	     -6.82342300	     -5.90166016	     -1.34356659
      1.13783333	     -4.97323506	      3.22252393	      0.06567099	      0.23770718	      0.92246442	      0.30515464	     26.37092993	     -6.99077098	     -8.02122177	    -67.03923737	     -2.36501587	      7.20083409	      8.03320654	      6.18334271	      7.32364331	      2.48319480	     -7.14660813	      2.82597392	    -14.23341967	      1.79018568	     -6.87363830	     -5.51833959	     -1.50065706
      1.14200000	     -4.91991331	      2.94720059	      0.21770130	      0.24291989	      0.92321320	      0.30481998	     26.74972206	     -6.68707711	     -8.26972947	    -66.16533051	     -2.00950797	      6.86802716	      7.91146298	      5.53755452	      7.04763550	      2.74304367	     -6.69998712	      2.85845604	    -14.26454956	      1.72226409	     -6.94395528	     -5.15413455	     -1.72861058
      1.14616667	     -4.86429095	      2.67739118	      0.37544769	      0.24812733	      0.92390405	      0.30448172	     27.10748918	     -6.39433234	     -8.52347130	    -65.23600362	     -1.66606593	      6.52903176	      7.78230269	      4.89686008	      6.77327248	      2.99724888	     -6.26322702	      2.89330534	    -14.29254603	      1.65518726	     -7.01257151	     -4.80087232	     -1.96196960
      1.15033333	     -4.80445424	      2.42070077	      0.53593624	      0.25332404	      0.92453963	      0.30414571	     27.44526758	     -6.11866449	     -8.77660608	    -64.25537059	     -1.35205009	      6.17133964	      7.62661932	      4.25823280	      6.50819001	      3.24982788	     -5.83475763	      2.92799203	    -14.32336967	      1.57998542	     -7.09136941	     -4.46294118	     -2.21494303
      1.15450000	     -4.74942482	      2.17974332	      0.69724408	      0.25848881	      0.92509433	      0.30382254	     27.77933307	     -5.85849745	     -9.01927632	    -63.24060532	     -0.97216217	      5.84031981	      5.76131031	      3.61869239	      6.25936991	      3.56268142	     -5.38437646	      2.91367464	    -14.51649573	      0.68264028	     -7.16082047	     -4.14892953	     -2.40541015
      1.15866667	     -4.68865549	      1.93205015	      0.86761119	      0.26366104	      0.92561062	      0.30350369	     28.07878278	     -5.59903683	     -9.28152058	    -62.14680913	     -0.72712146	      5.47113287	      5.72957965	      3.01235149	      5.98840734	      3.73415046	     -5.01218483	      3.02254170	    -14.37502563	      0.66582947	     -7.24105557	     -3.81818265	     -2.66204384
